<svg xmlns="http://www.w3.org/2000/svg" width="40" height="40" viewBox="0 0 40 40" shape-rendering="crispEdges">
  <!-- Background -->
  <rect width="40" height="40" rx="8" fill="#3d3578"/>
  <!-- Hair -->
  <g fill="#3B2507">
    <rect x="16" y="2" width="8" height="2"/>
    <rect x="14" y="4" width="12" height="2"/>
    <rect x="12" y="6" width="16" height="4"/>
    <rect x="12" y="10" width="2" height="2"/>
    <rect x="26" y="10" width="2" height="2"/>
  </g>
  <!-- Skin -->
  <g fill="#C68642">
    <rect x="14" y="10" width="12" height="2"/>
    <rect x="12" y="12" width="4" height="2"/>
    <rect x="18" y="12" width="4" height="2"/>
    <rect x="24" y="12" width="4" height="2"/>
    <rect x="12" y="14" width="16" height="2"/>
    <rect x="14" y="16" width="4" height="2"/>
    <rect x="22" y="16" width="4" height="2"/>
    <rect x="16" y="18" width="8" height="2"/>
    <rect x="10" y="22" width="2" height="4"/>
    <rect x="28" y="22" width="2" height="4"/>
  </g>
  <!-- Eyes -->
  <g fill="#111111">
    <rect x="16" y="12" width="2" height="2"/>
    <rect x="22" y="12" width="2" height="2"/>
  </g>
  <!-- Mouth -->
  <rect x="18" y="16" width="4" height="2" fill="#B07030"/>
  <!-- Shirt -->
  <g fill="#3A6BC5">
    <rect x="12" y="20" width="16" height="6"/>
    <rect x="14" y="26" width="12" height="2"/>
  </g>
  <!-- Pants -->
  <g fill="#2D3A4A">
    <rect x="14" y="28" width="12" height="2"/>
    <rect x="14" y="30" width="4" height="4"/>
    <rect x="22" y="30" width="4" height="4"/>
  </g>
  <!-- Shoes -->
  <g fill="#2A1A0A">
    <rect x="14" y="34" width="4" height="2"/>
    <rect x="22" y="34" width="4" height="2"/>
  </g>
</svg>
